General
Unique ID                                : 179853021462362193739085437147716128857 (0x874E6E95149D97B89C5C3E14BE8A1059)
Complete name                            : C:UsersMariosDesktopSurvival.Island.aka.THREE.2005.DVDRip.AC3.MKV.mkv
Format                                   : Matroska
Format version                           : Version 2
File size                                : 1.36 GiB
Duration                                 : 1h 31mn
Overall bit rate                         : 2 137 Kbps
Encoded date                             : UTC 2012-12-14 09:19:36
Writing application                      : mkvmerge v5.8.0 ('No Sleep / Pillow') built on Sep  2 2012 15:37:04
Writing library                          : libebml v1.2.3 + libmatroska v1.3.0

Video
ID                                       : 1
Format                                   : MPEG-4 Visual
Format profile                           : Advanced Simple@L5
Format settings, BVOP                    : Yes
Format settings, QPel                    : No
Format settings, GMC                     : No warppoints
Format settings, Matrix                  : Default (H.263)
Codec ID                                 : V_MS/VFW/FOURCC / XVID
Codec ID/Hint                            : XviD
Duration                                 : 1h 31mn
Bit rate                                 : 1 646 Kbps
Width                                    : 704 pixels
Height                                   : 384 pixels
Display aspect ratio                     : 1.85:1
Frame rate mode                          : Constant
Frame rate                               : 25.000 fps
Color space                              : YUV
Chroma subsampling                       : 4:2:0
Bit depth                                : 8 bits
Scan type                                : Progressive
Compression mode                         : Lossy
Bits/(Pixel*Frame)                       : 0.244
Stream size                              : 1.05 GiB (77%)
Writing library                          : XviD 1.2.1 (UTC 2008-12-04)
Default                                  : Yes
Forced                                   : No

Audio
ID                                       : 2
Format                                   : AC-3
Format/Info                              : Audio Coding 3
Mode extension                           : CM (complete main)
Format settings, Endianness              : Big
Muxing mode                              : Header stripping
Codec ID                                 : A_AC3
Duration                                 : 1h 31mn
Bit rate mode                            : Constant
Bit rate                                 : 448 Kbps
Channel(s)                               : 6 channels
Channel positions                        : Front: L C R, Side: L R, LFE
Sampling rate                            : 48.0 KHz
Bit depth                                : 16 bits
Compression mode                         : Lossy
Delay relative to video                  : 21ms
Stream size                              : 292 MiB (21%)
Language                                 : English
Default                                  : Yes
Forced                                   : No
